<svg xmlns="http://www.w3.org/2000/svg" xmlns:xlink="http://www.w3.org/1999/xlink" viewBox="0 0 1440 600"><defs><style>.cls-1{isolation:isolate;}.cls-2{fill:#e8e9fd;}.cls-134,.cls-135,.cls-136,.cls-3{mix-blend-mode:multiply;}.cls-3{fill:url(#linear-gradient);}.cls-137,.cls-4{opacity:0.2;}.cls-5{fill:#dc4e76;}.cls-6{fill:#db4e77;}.cls-7{fill:#da4e78;}.cls-8{fill:#d94e79;}.cls-9{fill:#d84e79;}.cls-10{fill:#d74e7a;}.cls-11{fill:#d64e7b;}.cls-12{fill:#d54e7c;}.cls-13{fill:#d44e7d;}.cls-14{fill:#d34e7e;}.cls-15{fill:#d24e7f;}.cls-16{fill:#d14e7f;}.cls-17{fill:#d04e80;}.cls-18{fill:#cf4e81;}.cls-19{fill:#ce4e82;}.cls-20{fill:#cd4e83;}.cls-21{fill:#cc4d84;}.cls-22{fill:#cb4d85;}.cls-23{fill:#ca4d85;}.cls-24{fill:#c94d86;}.cls-25{fill:#c84d87;}.cls-26{fill:#c74d88;}.cls-27{fill:#c64d89;}.cls-28{fill:#c54d8a;}.cls-29{fill:#c44d8b;}.cls-30{fill:#c34d8b;}.cls-31{fill:#c24d8c;}.cls-32{fill:#c14d8d;}.cls-33{fill:#c04d8e;}.cls-34{fill:#bf4d8f;}.cls-35{fill:#be4d90;}.cls-36{fill:#bd4d91;}.cls-37{fill:#bc4d91;}.cls-38{fill:#bb4d92;}.cls-39{fill:#ba4d93;}.cls-40{fill:#b94d94;}.cls-41{fill:#b84d95;}.cls-42{fill:#b74d96;}.cls-43{fill:#b64d97;}.cls-44{fill:#b54d98;}.cls-45{fill:#b44d98;}.cls-46{fill:#b34d99;}.cls-47{fill:#b24d9a;}.cls-48{fill:#b14d9b;}.cls-49{fill:#b04d9c;}.cls-50{fill:#af4d9d;}.cls-51{fill:#ae4d9e;}.cls-52{fill:#ad4d9e;}.cls-53{fill:#ac4c9f;}.cls-54{fill:#ab4ca0;}.cls-55{fill:#aa4ca1;}.cls-56{fill:#a94ca2;}.cls-57{fill:#a84ca3;}.cls-58{fill:#a74ca4;}.cls-59{fill:#a64ca4;}.cls-60{fill:#a54ca5;}.cls-61{fill:#a44ca6;}.cls-62{fill:#a34ca7;}.cls-63{fill:#a24ca8;}.cls-64{fill:#a14ca9;}.cls-65{fill:#a04caa;}.cls-66{fill:#9f4caa;}.cls-67{fill:#9e4cab;}.cls-68{fill:#9d4cac;}.cls-69{fill:#9c4cad;}.cls-70{fill:#9b4cae;}.cls-71{fill:#9a4caf;}.cls-72{fill:#994cb0;}.cls-73{fill:#984cb0;}.cls-74{fill:#974cb1;}.cls-75{fill:#964cb2;}.cls-76{fill:#954cb3;}.cls-77{fill:#944cb4;}.cls-78{fill:#934cb5;}.cls-79{fill:#924cb6;}.cls-80{fill:#914cb6;}.cls-81{fill:#904cb7;}.cls-82{fill:#8f4cb8;}.cls-83{fill:#8e4cb9;}.cls-84{fill:#8d4cba;}.cls-85{fill:#8c4cbb;}.cls-86{fill:#8b4bbc;}.cls-87{fill:#8a4bbc;}.cls-88{fill:#894bbd;}.cls-89{fill:#884bbe;}.cls-90{fill:#874bbf;}.cls-91{fill:#864bc0;}.cls-92{fill:#854bc1;}.cls-93{fill:#844bc2;}.cls-94{fill:#834bc2;}.cls-95{fill:#824bc3;}.cls-96{fill:#814bc4;}.cls-97{fill:#804bc5;}.cls-98{fill:#7f4bc6;}.cls-99{fill:#7e4bc7;}.cls-100{fill:#7d4bc8;}.cls-101{fill:#7c4bc8;}.cls-102{fill:#7b4bc9;}.cls-103{fill:#7a4bca;}.cls-104{fill:#794bcb;}.cls-105{fill:#784bcc;}.cls-106{fill:#774bcd;}.cls-107{fill:#764bce;}.cls-108{fill:#754bcf;}.cls-109{fill:#744bcf;}.cls-110{fill:#734bd0;}.cls-111{fill:#724bd1;}.cls-112{fill:#714bd2;}.cls-113{fill:#704bd3;}.cls-114{fill:#6f4bd4;}.cls-115{fill:#6e4bd5;}.cls-116{fill:#6d4bd5;}.cls-117{fill:#6c4bd6;}.cls-118{fill:#6b4ad7;}.cls-119{fill:#6a4ad8;}.cls-120{fill:#694ad9;}.cls-121{fill:#684ada;}.cls-122{fill:#674adb;}.cls-123{fill:#664adb;}.cls-124{fill:#654adc;}.cls-125{fill:#644add;}.cls-126{fill:#634ade;}.cls-127{fill:#624adf;}.cls-128{fill:#614ae0;}.cls-129{fill:#604ae1;}.cls-130{fill:#5f4ae1;}.cls-131{fill:#5e4ae2;}.cls-132{fill:#5d4ae3;}.cls-133{fill:#5c4ae4;}.cls-134{fill:url(#linear-gradient-2);}.cls-135,.cls-136{opacity:0.4;}.cls-135{fill:url(#linear-gradient-3);}.cls-136{fill:url(#linear-gradient-4);}.cls-137{fill:url(#linear-gradient-5);}.cls-138{opacity:0.7;fill:url(#linear-gradient-6);}.cls-139{fill:url(#linear-gradient-7);}</style><linearGradient id="linear-gradient" x1="1032.9" y1="456.28" x2="1149.37" y2="585.4" gradientUnits="userSpaceOnUse"><stop offset="0" stop-color="#9bede7"/><stop offset="0.17" stop-color="#a5efe9"/><stop offset="0.46" stop-color="#bff3f0"/><stop offset="0.83" stop-color="#eafbfa"/><stop offset="1" stop-color="#fff"/></linearGradient><linearGradient id="linear-gradient-2" x1="-2303.02" y1="3161.68" x2="-2213.8" y2="3260.59" gradientTransform="translate(3478.25 -2702.85)" xlink:href="#linear-gradient"/><linearGradient id="linear-gradient-3" x1="-2256.72" y1="3148.39" x2="-2167.5" y2="3247.3" gradientTransform="translate(3478.25 -2702.85)" xlink:href="#linear-gradient"/><linearGradient id="linear-gradient-4" x1="150.51" y1="48.13" x2="429.51" y2="357.43" gradientUnits="userSpaceOnUse"><stop offset="0" stop-color="#6d78bf"/><stop offset="0.1" stop-color="#868fca"/><stop offset="0.3" stop-color="#b1b7dd"/><stop offset="0.5" stop-color="#d3d6ec"/><stop offset="0.69" stop-color="#ebedf6"/><stop offset="0.86" stop-color="#fafafd"/><stop offset="1" stop-color="#fff"/></linearGradient><linearGradient id="linear-gradient-5" x1="-1765.59" y1="3194.88" x2="-1681.18" y2="3288.46" gradientTransform="translate(2408.44 -2763.67)" gradientUnits="userSpaceOnUse"><stop offset="0" stop-color="#6d78bf"/><stop offset="0.11" stop-color="#6782c4"/><stop offset="0.44" stop-color="#5a9acf"/><stop offset="0.75" stop-color="#52a9d7"/><stop offset="1" stop-color="#4faed9"/></linearGradient><linearGradient id="linear-gradient-6" x1="-1745.71" y1="3153.32" x2="-1661.3" y2="3246.9" gradientTransform="translate(2461.27 -2707.13)" gradientUnits="userSpaceOnUse"><stop offset="0" stop-color="#4faed9"/><stop offset="0.25" stop-color="#52a9d7"/><stop offset="0.56" stop-color="#5a9acf"/><stop offset="0.89" stop-color="#6782c4"/><stop offset="1" stop-color="#6d78bf"/></linearGradient><linearGradient id="linear-gradient-7" x1="883.02" y1="484.56" x2="901.39" y2="504.93" gradientTransform="matrix(1, 0, 0, 1, 0, 0)" xlink:href="#linear-gradient-5"/></defs><title>Artboard 4 copy 8</title><g class="cls-1"><g id="Layer_1" data-name="Layer 1"><rect class="cls-2" width="1440" height="600"/><path class="cls-3" d="M1166.59,600a105.16,105.16,0,1,0-145.27,0Z"/><g class="cls-4"><circle class="cls-5" cx="1073.8" cy="108.69" r="18.57"/><circle class="cls-6" cx="1076.15" cy="108.69" r="18.57"/><circle class="cls-7" cx="1078.51" cy="108.69" r="18.57"/><circle class="cls-8" cx="1080.86" cy="108.69" r="18.57"/><circle class="cls-9" cx="1083.22" cy="108.69" r="18.57"/><circle class="cls-10" cx="1085.57" cy="108.69" r="18.57"/><circle class="cls-11" cx="1087.93" cy="108.69" r="18.57"/><circle class="cls-12" cx="1090.28" cy="108.69" r="18.57"/><circle class="cls-13" cx="1092.64" cy="108.69" r="18.57"/><circle class="cls-14" cx="1094.99" cy="108.69" r="18.57"/><circle class="cls-15" cx="1097.35" cy="108.69" r="18.57"/><circle class="cls-16" cx="1099.7" cy="108.69" r="18.57"/><circle class="cls-17" cx="1102.06" cy="108.69" r="18.57"/><circle class="cls-18" cx="1104.41" cy="108.69" r="18.57"/><circle class="cls-19" cx="1106.76" cy="108.69" r="18.57"/><circle class="cls-20" cx="1109.12" cy="108.69" r="18.57"/><circle class="cls-21" cx="1111.47" cy="108.69" r="18.57"/><circle class="cls-22" cx="1113.83" cy="108.69" r="18.57"/><circle class="cls-23" cx="1116.18" cy="108.69" r="18.57"/><circle class="cls-24" cx="1118.54" cy="108.69" r="18.57"/><circle class="cls-25" cx="1120.89" cy="108.69" r="18.57"/><circle class="cls-26" cx="1123.25" cy="108.69" r="18.57"/><circle class="cls-27" cx="1125.6" cy="108.69" r="18.57"/><circle class="cls-28" cx="1127.96" cy="108.69" r="18.57"/><circle class="cls-29" cx="1130.31" cy="108.69" r="18.57"/><circle class="cls-30" cx="1132.67" cy="108.69" r="18.57"/><circle class="cls-31" cx="1135.02" cy="108.69" r="18.57"/><circle class="cls-32" cx="1137.38" cy="108.69" r="18.57"/><circle class="cls-33" cx="1139.73" cy="108.69" r="18.57"/><circle class="cls-34" cx="1142.09" cy="108.69" r="18.57"/><circle class="cls-35" cx="1144.44" cy="108.69" r="18.57"/><circle class="cls-36" cx="1146.8" cy="108.69" r="18.57"/><circle class="cls-37" cx="1149.15" cy="108.69" r="18.57"/><circle class="cls-38" cx="1151.51" cy="108.69" r="18.57"/><circle class="cls-39" cx="1153.86" cy="108.69" r="18.57"/><circle class="cls-40" cx="1156.22" cy="108.69" r="18.57"/><circle class="cls-41" cx="1158.57" cy="108.69" r="18.57"/><circle class="cls-42" cx="1160.93" cy="108.69" r="18.57"/><circle class="cls-43" cx="1163.28" cy="108.69" r="18.57"/><circle class="cls-44" cx="1165.64" cy="108.69" r="18.57"/><circle class="cls-45" cx="1167.99" cy="108.69" r="18.57"/><circle class="cls-46" cx="1170.35" cy="108.69" r="18.57"/><circle class="cls-47" cx="1172.7" cy="108.69" r="18.57"/><circle class="cls-48" cx="1175.06" cy="108.69" r="18.57"/><circle class="cls-49" cx="1177.41" cy="108.69" r="18.57"/><circle class="cls-50" cx="1179.77" cy="108.69" r="18.57"/><circle class="cls-51" cx="1182.12" cy="108.69" r="18.57"/><circle class="cls-52" cx="1184.48" cy="108.69" r="18.57"/><circle class="cls-53" cx="1186.83" cy="108.69" r="18.57"/><circle class="cls-54" cx="1189.19" cy="108.69" r="18.57"/><circle class="cls-55" cx="1191.54" cy="108.69" r="18.57"/><circle class="cls-56" cx="1193.9" cy="108.69" r="18.57"/><circle class="cls-57" cx="1196.25" cy="108.69" r="18.57"/><circle class="cls-58" cx="1198.61" cy="108.69" r="18.57"/><circle class="cls-59" cx="1200.96" cy="108.69" r="18.57"/><circle class="cls-60" cx="1203.32" cy="108.69" r="18.57"/><circle class="cls-61" cx="1205.67" cy="108.69" r="18.57"/><circle class="cls-62" cx="1208.03" cy="108.69" r="18.57"/><circle class="cls-63" cx="1210.38" cy="108.69" r="18.57"/><circle class="cls-64" cx="1212.74" cy="108.69" r="18.57"/><circle class="cls-65" cx="1215.09" cy="108.69" r="18.57"/><circle class="cls-66" cx="1217.45" cy="108.69" r="18.57"/><circle class="cls-67" cx="1219.8" cy="108.69" r="18.57"/><circle class="cls-68" cx="1222.16" cy="108.69" r="18.57"/><circle class="cls-69" cx="1224.51" cy="108.69" r="18.57"/><circle class="cls-70" cx="1226.87" cy="108.69" r="18.57"/><circle class="cls-71" cx="1229.22" cy="108.69" r="18.57"/><circle class="cls-72" cx="1231.58" cy="108.69" r="18.57"/><circle class="cls-73" cx="1233.93" cy="108.69" r="18.57"/><circle class="cls-74" cx="1236.29" cy="108.69" r="18.57"/><circle class="cls-75" cx="1238.64" cy="108.69" r="18.57"/><circle class="cls-76" cx="1241" cy="108.69" r="18.57"/><circle class="cls-77" cx="1243.35" cy="108.69" r="18.57"/><circle class="cls-78" cx="1245.71" cy="108.69" r="18.57"/><circle class="cls-79" cx="1248.06" cy="108.69" r="18.57"/><circle class="cls-80" cx="1250.42" cy="108.69" r="18.57"/><circle class="cls-81" cx="1252.77" cy="108.69" r="18.57"/><circle class="cls-82" cx="1255.13" cy="108.69" r="18.57"/><circle class="cls-83" cx="1257.48" cy="108.69" r="18.57"/><circle class="cls-84" cx="1259.84" cy="108.69" r="18.57"/><circle class="cls-85" cx="1262.19" cy="108.69" r="18.57"/><circle class="cls-86" cx="1264.55" cy="108.69" r="18.57"/><circle class="cls-87" cx="1266.9" cy="108.69" r="18.57"/><circle class="cls-88" cx="1269.26" cy="108.69" r="18.57"/><circle class="cls-89" cx="1271.61" cy="108.69" r="18.57"/><circle class="cls-90" cx="1273.97" cy="108.69" r="18.57"/><circle class="cls-91" cx="1276.32" cy="108.69" r="18.57"/><circle class="cls-92" cx="1278.68" cy="108.69" r="18.57"/><circle class="cls-93" cx="1281.03" cy="108.69" r="18.57"/><circle class="cls-94" cx="1283.39" cy="108.69" r="18.57"/><circle class="cls-95" cx="1285.74" cy="108.69" r="18.57"/><circle class="cls-96" cx="1288.1" cy="108.69" r="18.57"/><circle class="cls-97" cx="1290.45" cy="108.69" r="18.57"/><circle class="cls-98" cx="1292.8" cy="108.69" r="18.57"/><circle class="cls-99" cx="1295.16" cy="108.69" r="18.57"/><circle class="cls-100" cx="1297.51" cy="108.69" r="18.57"/><circle class="cls-101" cx="1299.87" cy="108.69" r="18.57"/><circle class="cls-102" cx="1302.22" cy="108.69" r="18.57"/><circle class="cls-103" cx="1304.58" cy="108.69" r="18.57"/><circle class="cls-104" cx="1306.93" cy="108.69" r="18.57"/><circle class="cls-105" cx="1309.29" cy="108.69" r="18.57"/><circle class="cls-106" cx="1311.64" cy="108.69" r="18.57"/><circle class="cls-107" cx="1314" cy="108.69" r="18.57"/><circle class="cls-108" cx="1316.35" cy="108.69" r="18.57"/><circle class="cls-109" cx="1318.71" cy="108.69" r="18.57"/><circle class="cls-110" cx="1321.06" cy="108.69" r="18.57"/><circle class="cls-111" cx="1323.42" cy="108.69" r="18.57"/><circle class="cls-112" cx="1325.77" cy="108.69" r="18.57"/><circle class="cls-113" cx="1328.13" cy="108.69" r="18.57"/><circle class="cls-114" cx="1330.48" cy="108.69" r="18.57"/><circle class="cls-115" cx="1332.84" cy="108.69" r="18.57"/><circle class="cls-116" cx="1335.19" cy="108.69" r="18.57"/><circle class="cls-117" cx="1337.55" cy="108.69" r="18.57"/><circle class="cls-118" cx="1339.9" cy="108.69" r="18.57"/><circle class="cls-119" cx="1342.26" cy="108.69" r="18.57"/><circle class="cls-120" cx="1344.61" cy="108.69" r="18.57"/><circle class="cls-121" cx="1346.97" cy="108.69" r="18.57"/><circle class="cls-122" cx="1349.32" cy="108.69" r="18.57"/><circle class="cls-123" cx="1351.68" cy="108.69" r="18.57"/><circle class="cls-124" cx="1354.03" cy="108.69" r="18.57"/><circle class="cls-125" cx="1356.39" cy="108.69" r="18.57"/><circle class="cls-126" cx="1358.74" cy="108.69" r="18.57"/><circle class="cls-127" cx="1361.1" cy="108.69" r="18.57"/><circle class="cls-128" cx="1363.45" cy="108.69" r="18.57"/><circle class="cls-129" cx="1365.81" cy="108.69" r="18.57"/><circle class="cls-130" cx="1368.16" cy="108.69" r="18.57"/><circle class="cls-131" cx="1370.52" cy="108.69" r="18.57"/><circle class="cls-132" cx="1372.87" cy="108.69" r="18.57"/><circle class="cls-133" cx="1375.23" cy="108.69" r="18.57"/></g><circle class="cls-5" cx="1027.18" cy="85.43" r="18.56"/><circle class="cls-6" cx="1029.61" cy="85.43" r="18.56"/><circle class="cls-7" cx="1032.04" cy="85.43" r="18.56"/><circle class="cls-8" cx="1034.46" cy="85.43" r="18.56"/><circle class="cls-9" cx="1036.89" cy="85.43" r="18.56"/><circle class="cls-10" cx="1039.32" cy="85.43" r="18.56"/><circle class="cls-11" cx="1041.75" cy="85.43" r="18.56"/><circle class="cls-12" cx="1044.18" cy="85.43" r="18.56"/><circle class="cls-13" cx="1046.61" cy="85.43" r="18.56"/><circle class="cls-14" cx="1049.04" cy="85.43" r="18.56"/><circle class="cls-15" cx="1051.47" cy="85.43" r="18.56"/><circle class="cls-16" cx="1053.9" cy="85.43" r="18.56"/><circle class="cls-17" cx="1056.33" cy="85.43" r="18.56"/><circle class="cls-18" cx="1058.75" cy="85.43" r="18.56"/><circle class="cls-19" cx="1061.18" cy="85.43" r="18.56"/><circle class="cls-20" cx="1063.61" cy="85.43" r="18.56"/><circle class="cls-21" cx="1066.04" cy="85.43" r="18.56"/><circle class="cls-22" cx="1068.47" cy="85.43" r="18.56"/><circle class="cls-23" cx="1070.9" cy="85.43" r="18.56"/><circle class="cls-24" cx="1073.33" cy="85.43" r="18.56"/><circle class="cls-25" cx="1075.76" cy="85.43" r="18.56"/><circle class="cls-26" cx="1078.19" cy="85.43" r="18.56"/><circle class="cls-27" cx="1080.62" cy="85.43" r="18.56"/><circle class="cls-28" cx="1083.05" cy="85.43" r="18.56"/><circle class="cls-29" cx="1085.47" cy="85.43" r="18.56"/><circle class="cls-30" cx="1087.9" cy="85.43" r="18.56"/><circle class="cls-31" cx="1090.33" cy="85.43" r="18.56"/><circle class="cls-32" cx="1092.76" cy="85.43" r="18.56"/><circle class="cls-33" cx="1095.19" cy="85.43" r="18.56"/><circle class="cls-34" cx="1097.62" cy="85.43" r="18.56"/><circle class="cls-35" cx="1100.05" cy="85.43" r="18.56"/><circle class="cls-36" cx="1102.48" cy="85.43" r="18.56"/><circle class="cls-37" cx="1104.91" cy="85.43" r="18.56"/><circle class="cls-38" cx="1107.34" cy="85.43" r="18.56"/><circle class="cls-39" cx="1109.76" cy="85.43" r="18.56"/><circle class="cls-40" cx="1112.19" cy="85.43" r="18.56"/><circle class="cls-41" cx="1114.62" cy="85.43" r="18.56"/><circle class="cls-42" cx="1117.05" cy="85.43" r="18.56"/><circle class="cls-43" cx="1119.48" cy="85.43" r="18.56"/><circle class="cls-44" cx="1121.91" cy="85.43" r="18.56"/><circle class="cls-45" cx="1124.34" cy="85.43" r="18.56"/><circle class="cls-46" cx="1126.77" cy="85.43" r="18.56"/><circle class="cls-47" cx="1129.2" cy="85.43" r="18.56"/><circle class="cls-48" cx="1131.63" cy="85.43" r="18.56"/><circle class="cls-49" cx="1134.06" cy="85.43" r="18.56"/><circle class="cls-50" cx="1136.48" cy="85.43" r="18.56"/><circle class="cls-51" cx="1138.91" cy="85.43" r="18.56"/><circle class="cls-52" cx="1141.34" cy="85.43" r="18.56"/><circle class="cls-53" cx="1143.77" cy="85.43" r="18.56"/><circle class="cls-54" cx="1146.2" cy="85.43" r="18.56"/><circle class="cls-55" cx="1148.63" cy="85.43" r="18.56"/><circle class="cls-56" cx="1151.06" cy="85.43" r="18.56"/><circle class="cls-57" cx="1153.49" cy="85.43" r="18.56"/><circle class="cls-58" cx="1155.92" cy="85.43" r="18.56"/><circle class="cls-59" cx="1158.35" cy="85.43" r="18.56"/><circle class="cls-60" cx="1160.78" cy="85.43" r="18.56"/><circle class="cls-61" cx="1163.2" cy="85.43" r="18.56"/><circle class="cls-62" cx="1165.63" cy="85.43" r="18.56"/><circle class="cls-63" cx="1168.06" cy="85.43" r="18.56"/><circle class="cls-64" cx="1170.49" cy="85.43" r="18.56"/><circle class="cls-65" cx="1172.92" cy="85.43" r="18.56"/><circle class="cls-66" cx="1175.35" cy="85.43" r="18.56"/><circle class="cls-67" cx="1177.78" cy="85.43" r="18.56"/><circle class="cls-68" cx="1180.21" cy="85.43" r="18.56"/><circle class="cls-69" cx="1182.64" cy="85.43" r="18.56"/><circle class="cls-70" cx="1185.07" cy="85.43" r="18.56"/><circle class="cls-71" cx="1187.49" cy="85.43" r="18.56"/><circle class="cls-72" cx="1189.92" cy="85.43" r="18.56"/><circle class="cls-73" cx="1192.35" cy="85.43" r="18.56"/><circle class="cls-74" cx="1194.78" cy="85.43" r="18.56"/><circle class="cls-75" cx="1197.21" cy="85.43" r="18.56"/><circle class="cls-76" cx="1199.64" cy="85.43" r="18.56"/><circle class="cls-77" cx="1202.07" cy="85.43" r="18.56"/><circle class="cls-78" cx="1204.5" cy="85.43" r="18.56"/><circle class="cls-79" cx="1206.93" cy="85.43" r="18.56"/><circle class="cls-80" cx="1209.36" cy="85.43" r="18.56"/><circle class="cls-81" cx="1211.79" cy="85.43" r="18.56"/><circle class="cls-82" cx="1214.21" cy="85.43" r="18.56"/><circle class="cls-83" cx="1216.64" cy="85.43" r="18.56"/><circle class="cls-84" cx="1219.07" cy="85.43" r="18.56"/><circle class="cls-85" cx="1221.5" cy="85.43" r="18.56"/><circle class="cls-86" cx="1223.93" cy="85.43" r="18.56"/><circle class="cls-87" cx="1226.36" cy="85.43" r="18.56"/><circle class="cls-88" cx="1228.79" cy="85.43" r="18.56"/><circle class="cls-89" cx="1231.22" cy="85.43" r="18.56"/><circle class="cls-90" cx="1233.65" cy="85.43" r="18.56"/><circle class="cls-91" cx="1236.08" cy="85.43" r="18.56"/><circle class="cls-92" cx="1238.5" cy="85.43" r="18.56"/><circle class="cls-93" cx="1240.93" cy="85.43" r="18.56"/><circle class="cls-94" cx="1243.36" cy="85.43" r="18.56"/><circle class="cls-95" cx="1245.79" cy="85.43" r="18.56"/><circle class="cls-96" cx="1248.22" cy="85.43" r="18.56"/><circle class="cls-97" cx="1250.65" cy="85.43" r="18.56"/><circle class="cls-98" cx="1253.08" cy="85.43" r="18.56"/><circle class="cls-99" cx="1255.51" cy="85.43" r="18.56"/><circle class="cls-100" cx="1257.94" cy="85.43" r="18.56"/><circle class="cls-101" cx="1260.37" cy="85.43" r="18.56"/><circle class="cls-102" cx="1262.8" cy="85.43" r="18.56"/><circle class="cls-103" cx="1265.22" cy="85.43" r="18.56"/><circle class="cls-104" cx="1267.65" cy="85.43" r="18.56"/><circle class="cls-105" cx="1270.08" cy="85.43" r="18.56"/><circle class="cls-106" cx="1272.51" cy="85.43" r="18.56"/><circle class="cls-107" cx="1274.94" cy="85.43" r="18.56"/><circle class="cls-108" cx="1277.37" cy="85.43" r="18.56"/><circle class="cls-109" cx="1279.8" cy="85.43" r="18.56"/><circle class="cls-110" cx="1282.23" cy="85.43" r="18.56"/><circle class="cls-111" cx="1284.66" cy="85.43" r="18.56"/><circle class="cls-112" cx="1287.09" cy="85.43" r="18.56"/><circle class="cls-113" cx="1289.52" cy="85.43" r="18.56"/><circle class="cls-114" cx="1291.94" cy="85.43" r="18.56"/><circle class="cls-115" cx="1294.37" cy="85.43" r="18.56"/><circle class="cls-116" cx="1296.8" cy="85.43" r="18.56"/><circle class="cls-117" cx="1299.23" cy="85.43" r="18.56"/><circle class="cls-118" cx="1301.66" cy="85.43" r="18.56"/><circle class="cls-119" cx="1304.09" cy="85.43" r="18.56"/><circle class="cls-120" cx="1306.52" cy="85.43" r="18.56"/><circle class="cls-121" cx="1308.95" cy="85.43" r="18.56"/><circle class="cls-122" cx="1311.38" cy="85.43" r="18.56"/><circle class="cls-123" cx="1313.81" cy="85.43" r="18.56"/><circle class="cls-124" cx="1316.23" cy="85.43" r="18.56"/><circle class="cls-125" cx="1318.66" cy="85.43" r="18.56"/><circle class="cls-126" cx="1321.09" cy="85.43" r="18.56"/><circle class="cls-127" cx="1323.52" cy="85.43" r="18.56"/><circle class="cls-128" cx="1325.95" cy="85.43" r="18.56"/><circle class="cls-129" cx="1328.38" cy="85.43" r="18.56"/><circle class="cls-130" cx="1330.81" cy="85.43" r="18.56"/><circle class="cls-131" cx="1333.24" cy="85.43" r="18.56"/><circle class="cls-132" cx="1335.67" cy="85.43" r="18.56"/><circle class="cls-133" cx="1338.1" cy="85.43" r="18.56"/><rect class="cls-134" x="1108.3" y="497.37" width="227.38" height="26.59" rx="13.3" ry="13.3" transform="translate(2443.97 1021.34) rotate(180)"/><rect class="cls-135" x="1154.6" y="484.08" width="227.38" height="26.59" rx="13.3" ry="13.3" transform="translate(2536.57 994.75) rotate(180)"/><path class="cls-136" d="M435.46,0A251.62,251.62,0,0,1,548.58,210.22c0,139.1-112.76,251.85-251.85,251.85S44.88,349.32,44.88,210.22A251.61,251.61,0,0,1,158,0Z"/><rect class="cls-137" x="582.28" y="462.07" width="209.6" height="36.37" rx="18.19" ry="18.19" transform="translate(1374.16 960.52) rotate(180)"/><rect class="cls-138" x="655" y="477.05" width="209.6" height="36.37" rx="18.19" ry="18.19" transform="translate(1519.6 990.47) rotate(180)"/><circle class="cls-139" cx="892.65" cy="495.23" r="16.58"/></g></g></svg>