<svg xmlns="http://www.w3.org/2000/svg" xmlns:xlink="http://www.w3.org/1999/xlink" viewBox="0 0 1440 600"><defs><style>.cls-1{isolation:isolate;}.cls-2{fill:#e8e9fd;}.cls-3{opacity:0.4;mix-blend-mode:multiply;fill:url(#linear-gradient);}.cls-4{fill:url(#linear-gradient-2);}.cls-5{opacity:0.6;fill:url(#linear-gradient-3);}.cls-6{fill:url(#linear-gradient-4);}</style><linearGradient id="linear-gradient" x1="150.51" y1="48.13" x2="429.51" y2="357.43" gradientUnits="userSpaceOnUse"><stop offset="0" stop-color="#6d78bf"/><stop offset="0.1" stop-color="#868fca"/><stop offset="0.3" stop-color="#b1b7dd"/><stop offset="0.5" stop-color="#d3d6ec"/><stop offset="0.69" stop-color="#ebedf6"/><stop offset="0.86" stop-color="#fafafd"/><stop offset="1" stop-color="#fff"/></linearGradient><linearGradient id="linear-gradient-2" x1="487.34" y1="49.08" x2="521.89" y2="87.37" gradientUnits="userSpaceOnUse"><stop offset="0" stop-color="#6d78bf" stop-opacity="0.8"/><stop offset="0.04" stop-color="#6b7cc1" stop-opacity="0.75"/><stop offset="0.26" stop-color="#618eca" stop-opacity="0.52"/><stop offset="0.47" stop-color="#599cd0" stop-opacity="0.34"/><stop offset="0.67" stop-color="#54a6d5" stop-opacity="0.21"/><stop offset="0.85" stop-color="#50acd8" stop-opacity="0.13"/><stop offset="1" stop-color="#4faed9" stop-opacity="0.1"/></linearGradient><linearGradient id="linear-gradient-3" x1="1228.49" y1="-18.63" x2="1342.49" y2="95.37" gradientUnits="userSpaceOnUse"><stop offset="0" stop-color="#dc4e76" stop-opacity="0.8"/><stop offset="0.83" stop-color="#f9e1e7" stop-opacity="0.15"/><stop offset="1" stop-color="#fff" stop-opacity="0.02"/></linearGradient><linearGradient id="linear-gradient-4" x1="969.27" y1="393.48" x2="1136.67" y2="579.06" xlink:href="#linear-gradient-2"/></defs><title>bg ver 3</title><g class="cls-1"><g id="Layer_1" data-name="Layer 1"><rect class="cls-2" width="1440" height="600"/><path class="cls-3" d="M435.46,0A251.62,251.62,0,0,1,548.58,210.22c0,139.1-112.76,251.85-251.85,251.85S44.88,349.32,44.88,210.22A251.61,251.61,0,0,1,158,0Z"/><circle class="cls-4" cx="505.45" cy="69.14" r="31.18"/><path class="cls-5" d="M1368.2,0a91.67,91.67,0,1,1-177,0Z"/><path class="cls-6" d="M1161.43,600.05a151.15,151.15,0,1,0-208.82,0Z"/></g></g></svg>